<svg id="图层_1" data-name="图层 1" xmlns="http://www.w3.org/2000/svg" viewBox="0 0 443.87 125.85"><defs><style>.cls-1{opacity:0.12;}</style></defs><title>logo</title><path class="cls-1" d="M187.36,52.58V7.42a2.64,2.64,0,0,0-.55-1.79,4,4,0,0,0-1.95-1V3.36H201.5V4.61a3.7,3.7,0,0,0-2,1A2.73,2.73,0,0,0,199,7.42V52.58a2.69,2.69,0,0,0,.56,1.85,3.75,3.75,0,0,0,1.94,1v1.25H184.86V55.43a4,4,0,0,0,1.95-1A2.7,2.7,0,0,0,187.36,52.58Z" transform="translate(-2.56 -3.36)"/><path class="cls-1" d="M225.21,34.92v17.7a2.69,2.69,0,0,0,.56,1.81,3.75,3.75,0,0,0,1.94,1v1.25H211.07V55.43a4,4,0,0,0,2-1,2.64,2.64,0,0,0,.55-1.79V7.46A2.7,2.7,0,0,0,213,5.63a4,4,0,0,0-2-1V3.36h33.36a52.24,52.24,0,0,1,9.66.7,17.16,17.16,0,0,1,6.23,2.46A12.37,12.37,0,0,1,264.93,12a17.91,17.91,0,0,1,1.45,7.19q0,13.05-14.49,15.27l10.35,14.73a33.09,33.09,0,0,0,4,5,5.09,5.09,0,0,0,3.11,1.23v1.25H250.08V55.43c1.33-.21,2-.68,2-1.41q0-.71-1.83-3.39l-10.8-15.71Zm0-8.79h18a47.29,47.29,0,0,0,5.62-.23,8.88,8.88,0,0,0,3-1c2-1.07,3-3,3-5.78s-1-4.71-3-5.78a8.59,8.59,0,0,0-3-1,50.27,50.27,0,0,0-5.64-.21h-18Z" transform="translate(-2.56 -3.36)"/><path class="cls-1" d="M45.73,87.75,26.81,129.21H22.39L2.56,87.75h11.1l10.83,23.39L34.75,87.75Z" transform="translate(-2.56 -3.36)"/><path class="cls-1" d="M49,92a4.63,4.63,0,0,1,1.41-3.4,4.76,4.76,0,0,1,6.76,0,4.78,4.78,0,0,1,0,6.78A4.79,4.79,0,0,1,49,92Zm9.17,9v27.66H49.5V101Z" transform="translate(-2.56 -3.36)"/><path class="cls-1" d="M74.52,101v7.91h.12q3.78-8.49,8.81-8.49c1.61,0,3.53.84,5.78,2.52l-2.41,7.7c-2.15-1.36-3.86-2-5.15-2q-3,0-5.09,3.74t-2.06,4.36v12h-8.7V101Z" transform="translate(-2.56 -3.36)"/><path class="cls-1" d="M113.54,101v6H103.46v11.4a4.51,4.51,0,0,0,1.13,3.23,4.06,4.06,0,0,0,3.12,1.19,12.9,12.9,0,0,0,5.83-1.61v6.3a21,21,0,0,1-8.05,1.73q-5.1,0-7.91-2.64t-2.82-7.73V107h-4v-1.7l11.57-13h1.08V101Z" transform="translate(-2.56 -3.36)"/><path class="cls-1" d="M137.1,128.68v-4q-3.84,4.48-8.94,4.49a9.93,9.93,0,0,1-7.32-2.79,10.32,10.32,0,0,1-2.82-7.7V101h8.71v17.09q0,5.27,4.36,5.27a5.47,5.47,0,0,0,4.2-1.92c1.17-1.28,1.75-2.22,1.75-2.82V101h8.76v27.66Z" transform="translate(-2.56 -3.36)"/><path class="cls-1" d="M181.25,121.85v4.84a16.35,16.35,0,0,1-8.15,2.52q-4.09,0-4.86-3.11a16.07,16.07,0,0,1-9.11,3.11,7.87,7.87,0,0,1-5.48-2,6.24,6.24,0,0,1-2.26-4.74,7.69,7.69,0,0,1,2.33-5.83q2.34-2.2,14.11-5.7.28-4.64-4.81-4.63-5.53,0-10.19,4.63v-7.09a22.31,22.31,0,0,1,12-3.37q11.72,0,11.72,8.42v12.61c0,1.29.48,1.94,1.44,1.94A6.87,6.87,0,0,0,181.25,121.85Zm-13.42.11v-6.7a24.4,24.4,0,0,0-6,2.75,3.71,3.71,0,0,0-1.63,3.1,2.91,2.91,0,0,0,.82,2.07,2.64,2.64,0,0,0,2,.87A7.16,7.16,0,0,0,167.83,122Z" transform="translate(-2.56 -3.36)"/><path class="cls-1" d="M193.73,87.75v40.93H185V87.75Z" transform="translate(-2.56 -3.36)"/><path class="cls-1" d="M240.76,102.93l13.16-15.18h8.86v40.93h-10.2V103.13L241.53,116H240l-11.06-12.83v25.55H218.75V87.75h8.85Z" transform="translate(-2.56 -3.36)"/><path class="cls-1" d="M299.11,121.85v4.84a16.35,16.35,0,0,1-8.15,2.52q-4.09,0-4.86-3.11a16,16,0,0,1-9.11,3.11,7.87,7.87,0,0,1-5.48-2,6.24,6.24,0,0,1-2.26-4.74,7.69,7.69,0,0,1,2.33-5.83q2.34-2.2,14.11-5.7c.2-3.09-1.41-4.63-4.8-4.63-3.7,0-7.09,1.54-10.2,4.63v-7.09a22.31,22.31,0,0,1,12-3.37q11.73,0,11.72,8.42v12.61c0,1.29.48,1.94,1.44,1.94A6.87,6.87,0,0,0,299.11,121.85Zm-13.42.11v-6.7a24.4,24.4,0,0,0-6,2.75,3.74,3.74,0,0,0-1.63,3.1,2.91,2.91,0,0,0,.82,2.07,2.64,2.64,0,0,0,2,.87A7.16,7.16,0,0,0,285.69,122Z" transform="translate(-2.56 -3.36)"/><path class="cls-1" d="M326.88,121.12v6.24a27.68,27.68,0,0,1-9.34,1.85q-7.31,0-11.66-3.92a13.25,13.25,0,0,1-4.37-10.37,13.56,13.56,0,0,1,4.41-10.39,15.85,15.85,0,0,1,11.24-4.09,27,27,0,0,1,9.31,1.81v6.48a15.46,15.46,0,0,0-7.09-1.85,8.84,8.84,0,0,0-6.24,2.17,7.56,7.56,0,0,0-2.34,5.82,7.93,7.93,0,0,0,2.28,5.91,8.21,8.21,0,0,0,6,2.25A24.16,24.16,0,0,0,326.88,121.12Z" transform="translate(-2.56 -3.36)"/><path class="cls-1" d="M341.53,87.75v17.32h.12q3.63-4.63,8.76-4.63a10,10,0,0,1,7.28,2.8,10.41,10.41,0,0,1,2.85,7.78v17.66h-8.7V112.87q0-6-4.48-6.05c-2,0-3.92,1.4-5.83,4.2v17.66h-8.7V87.75Z" transform="translate(-2.56 -3.36)"/><path class="cls-1" d="M367.4,92a4.63,4.63,0,0,1,1.41-3.4,4.76,4.76,0,0,1,6.76,0,4.81,4.81,0,0,1-3.4,8.2,4.54,4.54,0,0,1-3.36-1.42A4.62,4.62,0,0,1,367.4,92Zm9.17,9v27.66h-8.7V101Z" transform="translate(-2.56 -3.36)"/><path class="cls-1" d="M392.65,101V105a11.51,11.51,0,0,1,9-4.51,10,10,0,0,1,7.19,2.75c1.92,1.84,2.89,4.47,2.89,7.89v17.6H403V111.81q0-5.53-4.3-5.54-3.08,0-6.07,4.57v17.84H384V101Z" transform="translate(-2.56 -3.36)"/><path class="cls-1" d="M445.92,120.1v5.47a20.36,20.36,0,0,1-12.34,3.64q-7.29,0-11.66-3.92a13.24,13.24,0,0,1-4.36-10.37,14,14,0,0,1,4.1-10.41,14.23,14.23,0,0,1,10.46-4.07,13.83,13.83,0,0,1,10.47,4.29q4.08,4.29,3.82,11.5H426.55a7.91,7.91,0,0,0,2.67,5.79,9.67,9.67,0,0,0,6.44,2Q440.55,124.05,445.92,120.1Zm-19.19-8.44h12q-.71-6-6-6T426.73,111.66Z" transform="translate(-2.56 -3.36)"/></svg>