<?xml version="1.0" encoding="utf-8"?>
<!-- Generator: Adobe Illustrator 24.0.1, SVG Export Plug-In . SVG Version: 6.00 Build 0)  -->
<svg version="1.1" id="图层_1" xmlns="http://www.w3.org/2000/svg" xmlns:xlink="http://www.w3.org/1999/xlink" x="0px" y="0px"
	 viewBox="0 0 50 50" enable-background="new 0 0 50 50" xml:space="preserve">
<g>
	<rect x="3" y="9" fill="none" width="44" height="39.8"/>
	<path d="M14.16,36.09L7.2,13.91h2.06l6.27,20.5h0.19l6.27-20.5h2.06l-6.95,22.19H14.16z"/>
	<path d="M27.25,36.09V13.91h1.94v22.19H27.25z M33.31,26.2l-3.89-10.06h-0.55v-2.23h1.55l3.89,10.17h0.08l0.23,2.13H33.31z
		 M34.06,26.2l0.3-2.13h0.08l3.89-10.17h1.73v2.23h-0.73L35.44,26.2H34.06z M39.56,36.09V13.91h1.94v22.19H39.56z"/>
</g>
<g>
	<path fill="none" stroke="#000000" stroke-width="2" stroke-miterlimit="10" d="M1.5,36.5c0,3.87,3.13,7,7,7h33c3.87,0,7-3.13,7-7
		v-22c0-3.87-3.13-7-7-7h-33c-3.87,0-7,3.13-7,7V36.5z"/>
</g>
<g>
</g>
<g>
</g>
<g>
</g>
<g>
</g>
<g>
</g>
<g>
</g>
<g>
</g>
<g>
</g>
<g>
</g>
<g>
</g>
<g>
</g>
</svg>
